HIERARCHY
ROOT mixamorig:Hips
{
	OFFSET -0.000008 104.274872 1.554316
	CHANNELS 6 Xposition Yposition Zposition Xrotation Yrotation Zrotation
	JOINT mixamorig:Spine
	{
		OFFSET -0.000005 10.181595 0.131519
		CHANNELS 6 Xposition Yposition Zposition Xrotation Yrotation Zrotation
		JOINT mixamorig:Spine1
		{
			OFFSET -0.000000 9.893959 -1.470707
			CHANNELS 6 Xposition Yposition Zposition Xrotation Yrotation Zrotation
			JOINT mixamorig:Spine2
			{
				OFFSET -0.000000 9.220757 -1.370641
				CHANNELS 6 Xposition Yposition Zposition Xrotation Yrotation Zrotation
				JOINT mixamorig:Neck
				{
					OFFSET 0.000001 16.740417 -2.049036
					CHANNELS 6 Xposition Yposition Zposition Xrotation Yrotation Zrotation
					JOINT mixamorig:Head
					{
						OFFSET 0.000000 9.617874 1.685006
						CHANNELS 6 Xposition Yposition Zposition Xrotation Yrotation Zrotation
						JOINT mixamorig:HeadTop_End
						{
							OFFSET 0.000002 22.037354 7.501101
							CHANNELS 6 Xposition Yposition Zposition Xrotation Yrotation Zrotation
							End Site
							{
								OFFSET 0.000168 2310.654297 -282.823242
							}
						}
					}
				}
				JOINT mixamorig:RightShoulder
				{
					OFFSET -4.569970 11.014908 -2.160885
					CHANNELS 6 Xposition Yposition Zposition Xrotation Yrotation Zrotation
					JOINT mixamorig:RightArm
					{
						OFFSET -10.592851 -0.524811 -2.232101
						CHANNELS 6 Xposition Yposition Zposition Xrotation Yrotation Zrotation
						JOINT mixamorig:RightForeArm
						{
							OFFSET -27.841511 0.000031 -0.000004
							CHANNELS 6 Xposition Yposition Zposition Xrotation Yrotation Zrotation
							JOINT mixamorig:RightHand
							{
								OFFSET -28.328831 -0.000015 0.000015
								CHANNELS 6 Xposition Yposition Zposition Xrotation Yrotation Zrotation
								JOINT mixamorig:RightHandThumb1
								{
									OFFSET -2.464806 -1.573990 2.681852
									CHANNELS 6 Xposition Yposition Zposition Xrotation Yrotation Zrotation
									JOINT mixamorig:RightHandThumb2
									{
										OFFSET -3.215179 -1.872803 1.924282
										CHANNELS 6 Xposition Yposition Zposition Xrotation Yrotation Zrotation
										JOINT mixamorig:RightHandThumb3
										{
											OFFSET -2.654831 -1.527969 1.512609
											CHANNELS 6 Xposition Yposition Zposition Xrotation Yrotation Zrotation
											JOINT mixamorig:RightHandThumb4
											{
												OFFSET -2.018814 -1.152008 1.108052
												CHANNELS 6 Xposition Yposition Zposition Xrotation Yrotation Zrotation
												End Site
												{
													OFFSET -188.809540 -114.533607 132.431396
												}
											}
										}
									}
								}
								JOINT mixamorig:RightHandIndex1
								{
									OFFSET -9.108284 -0.517868 2.259835
									CHANNELS 6 Xposition Yposition Zposition Xrotation Yrotation Zrotation
									JOINT mixamorig:RightHandIndex2
									{
										OFFSET -3.699989 0.000000 0.001215
										CHANNELS 6 Xposition Yposition Zposition Xrotation Yrotation Zrotation
										JOINT mixamorig:RightHandIndex3
										{
											OFFSET -2.850006 0.000031 -0.000522
											CHANNELS 6 Xposition Yposition Zposition Xrotation Yrotation Zrotation
											JOINT mixamorig:RightHandIndex4
											{
												OFFSET -2.772186 -0.000015 -0.000020
												CHANNELS 6 Xposition Yposition Zposition Xrotation Yrotation Zrotation
												End Site
												{
													OFFSET -277.218445 0.000000 -0.050231
												}
											}
										}
									}
								}
								JOINT mixamorig:RightHandMiddle1
								{
									OFFSET -9.532516 -0.000031 -0.000023
									CHANNELS 6 Xposition Yposition Zposition Xrotation Yrotation Zrotation
									JOINT mixamorig:RightHandMiddle2
									{
										OFFSET -3.700005 -0.000015 0.003713
										CHANNELS 6 Xposition Yposition Zposition Xrotation Yrotation Zrotation
										JOINT mixamorig:RightHandMiddle3
										{
											OFFSET -2.949974 0.000015 -0.002054
											CHANNELS 6 Xposition Yposition Zposition Xrotation Yrotation Zrotation
											JOINT mixamorig:RightHandMiddle4
											{
												OFFSET -2.946640 0.000000 -0.000156
												CHANNELS 6 Xposition Yposition Zposition Xrotation Yrotation Zrotation
												End Site
												{
													OFFSET -294.664337 0.000000 -0.113670
												}
											}
										}
									}
								}
								JOINT mixamorig:RightHandRing1
								{
									OFFSET -9.103600 -0.043076 -1.865134
									CHANNELS 6 Xposition Yposition Zposition Xrotation Yrotation Zrotation
									JOINT mixamorig:RightHandRing2
									{
										OFFSET -3.379288 0.000000 -0.001055
										CHANNELS 6 Xposition Yposition Zposition Xrotation Yrotation Zrotation
										JOINT mixamorig:RightHandRing3
										{
											OFFSET -2.889687 -0.000015 0.000379
											CHANNELS 6 Xposition Yposition Zposition Xrotation Yrotation Zrotation
											JOINT mixamorig:RightHandRing4
											{
												OFFSET -2.638809 -0.000015 0.000941
												CHANNELS 6 Xposition Yposition Zposition Xrotation Yrotation Zrotation
												End Site
												{
													OFFSET -263.880371 0.000000 0.516020
												}
											}
										}
									}
								}
								JOINT mixamorig:RightHandPinky1
								{
									OFFSET -8.076683 -0.486710 -3.806280
									CHANNELS 6 Xposition Yposition Zposition Xrotation Yrotation Zrotation
									JOINT mixamorig:RightHandPinky2
									{
										OFFSET -3.600014 -0.000015 -0.003747
										CHANNELS 6 Xposition Yposition Zposition Xrotation Yrotation Zrotation
										JOINT mixamorig:RightHandPinky3
										{
											OFFSET -2.099983 0.000000 -0.005739
											CHANNELS 6 Xposition Yposition Zposition Xrotation Yrotation Zrotation
											JOINT mixamorig:RightHandPinky4
											{
												OFFSET -2.115768 -0.000031 -0.003680
												CHANNELS 6 Xposition Yposition Zposition Xrotation Yrotation Zrotation
												End Site
												{
													OFFSET -211.577087 0.000000 -0.350686
												}
											}
										}
									}
								}
							}
						}
					}
				}
				JOINT mixamorig:LeftShoulder
				{
					OFFSET 4.570447 11.014725 -2.160855
					CHANNELS 6 Xposition Yposition Zposition Xrotation Yrotation Zrotation
					JOINT mixamorig:LeftArm
					{
						OFFSET 10.592371 -0.524597 -2.232119
						CHANNELS 6 Xposition Yposition Zposition Xrotation Yrotation Zrotation
						JOINT mixamorig:LeftForeArm
						{
							OFFSET 27.841532 -0.000031 0.000026
							CHANNELS 6 Xposition Yposition Zposition Xrotation Yrotation Zrotation
							JOINT mixamorig:LeftHand
							{
								OFFSET 28.328846 -0.000061 0.000022
								CHANNELS 6 Xposition Yposition Zposition Xrotation Yrotation Zrotation
								JOINT mixamorig:LeftHandThumb1
								{
									OFFSET 2.466141 -1.576172 2.681732
									CHANNELS 6 Xposition Yposition Zposition Xrotation Yrotation Zrotation
									JOINT mixamorig:LeftHandThumb2
									{
										OFFSET 3.217812 -1.872070 1.916482
										CHANNELS 6 Xposition Yposition Zposition Xrotation Yrotation Zrotation
										JOINT mixamorig:LeftHandThumb3
										{
											OFFSET 2.656029 -1.528778 1.514513
											CHANNELS 6 Xposition Yposition Zposition Xrotation Yrotation Zrotation
											JOINT mixamorig:LeftHandThumb4
											{
												OFFSET 2.020889 -1.154053 1.115139
												CHANNELS 6 Xposition Yposition Zposition Xrotation Yrotation Zrotation
												End Site
												{
													OFFSET 190.885437 -115.081749 130.048782
												}
											}
										}
									}
								}
								JOINT mixamorig:LeftHandIndex1
								{
									OFFSET 9.109314 -0.518021 2.259871
									CHANNELS 6 Xposition Yposition Zposition Xrotation Yrotation Zrotation
									JOINT mixamorig:LeftHandIndex2
									{
										OFFSET 3.699989 0.000000 -0.000322
										CHANNELS 6 Xposition Yposition Zposition Xrotation Yrotation Zrotation
										JOINT mixamorig:LeftHandIndex3
										{
											OFFSET 2.850006 0.000000 0.000352
											CHANNELS 6 Xposition Yposition Zposition Xrotation Yrotation Zrotation
											JOINT mixamorig:LeftHandIndex4
											{
												OFFSET 2.774864 -0.000031 -0.000027
												CHANNELS 6 Xposition Yposition Zposition Xrotation Yrotation Zrotation
												End Site
												{
													OFFSET 277.486267 0.000000 -0.009857
												}
											}
										}
									}
								}
								JOINT mixamorig:LeftHandMiddle1
								{
									OFFSET 9.533394 0.000061 0.000044
									CHANNELS 6 Xposition Yposition Zposition Xrotation Yrotation Zrotation
									JOINT mixamorig:LeftHandMiddle2
									{
										OFFSET 3.699989 -0.000015 -0.000231
										CHANNELS 6 Xposition Yposition Zposition Xrotation Yrotation Zrotation
										JOINT mixamorig:LeftHandMiddle3
										{
											OFFSET 2.949997 -0.000015 -0.000059
											CHANNELS 6 Xposition Yposition Zposition Xrotation Yrotation Zrotation
											JOINT mixamorig:LeftHandMiddle4
											{
												OFFSET 2.952896 0.000031 0.000063
												CHANNELS 6 Xposition Yposition Zposition Xrotation Yrotation Zrotation
												End Site
												{
													OFFSET 295.289337 0.000000 0.022810
												}
											}
										}
									}
								}
								JOINT mixamorig:LeftHandRing1
								{
									OFFSET 9.104523 -0.042999 -1.865074
									CHANNELS 6 Xposition Yposition Zposition Xrotation Yrotation Zrotation
									JOINT mixamorig:LeftHandRing2
									{
										OFFSET 3.150009 -0.000031 0.000043
										CHANNELS 6 Xposition Yposition Zposition Xrotation Yrotation Zrotation
										JOINT mixamorig:LeftHandRing3
										{
											OFFSET 2.949982 -0.000015 0.000040
											CHANNELS 6 Xposition Yposition Zposition Xrotation Yrotation Zrotation
											JOINT mixamorig:LeftHandRing4
											{
												OFFSET 2.644348 0.000000 0.000057
												CHANNELS 6 Xposition Yposition Zposition Xrotation Yrotation Zrotation
												End Site
												{
													OFFSET 264.434631 0.000000 0.012105
												}
											}
										}
									}
								}
								JOINT mixamorig:LeftHandPinky1
								{
									OFFSET 8.077789 -0.486847 -3.806259
									CHANNELS 6 Xposition Yposition Zposition Xrotation Yrotation Zrotation
									JOINT mixamorig:LeftHandPinky2
									{
										OFFSET 3.599953 0.000031 0.014727
										CHANNELS 6 Xposition Yposition Zposition Xrotation Yrotation Zrotation
										JOINT mixamorig:LeftHandPinky3
										{
											OFFSET 2.100021 0.000015 0.007705
											CHANNELS 6 Xposition Yposition Zposition Xrotation Yrotation Zrotation
											JOINT mixamorig:LeftHandPinky4
											{
												OFFSET 2.125504 0.000031 0.007517
												CHANNELS 6 Xposition Yposition Zposition Xrotation Yrotation Zrotation
												End Site
												{
													OFFSET 212.550781 0.000000 0.625752
												}
											}
										}
									}
								}
							}
						}
					}
				}
			}
		}
	}
	JOINT mixamorig:RightUpLeg
	{
		OFFSET -8.207787 -6.751648 -1.599560
		CHANNELS 6 Xposition Yposition Zposition Xrotation Yrotation Zrotation
		JOINT mixamorig:RightLeg
		{
			OFFSET -0.000002 -44.370117 0.345942
			CHANNELS 6 Xposition Yposition Zposition Xrotation Yrotation Zrotation
			JOINT mixamorig:RightFoot
			{
				OFFSET 0.000003 -44.423679 -3.043532
				CHANNELS 6 Xposition Yposition Zposition Xrotation Yrotation Zrotation
				JOINT mixamorig:RightToeBase
				{
					OFFSET -0.000002 -8.728671 10.710558
					CHANNELS 6 Xposition Yposition Zposition Xrotation Yrotation Zrotation
					JOINT mixamorig:RightToe_End
					{
						OFFSET -0.000001 -0.000679 9.278119
						CHANNELS 6 Xposition Yposition Zposition Xrotation Yrotation Zrotation
						End Site
						{
							OFFSET 0.000000 -0.067690 927.812134
						}
					}
				}
			}
		}
	}
	JOINT mixamorig:LeftUpLeg
	{
		OFFSET 8.207793 -6.751686 -1.599556
		CHANNELS 6 Xposition Yposition Zposition Xrotation Yrotation Zrotation
		JOINT mixamorig:LeftLeg
		{
			OFFSET -0.000004 -44.370014 0.346954
			CHANNELS 6 Xposition Yposition Zposition Xrotation Yrotation Zrotation
			JOINT mixamorig:LeftFoot
			{
				OFFSET -0.000001 -44.423672 -3.044401
				CHANNELS 6 Xposition Yposition Zposition Xrotation Yrotation Zrotation
				JOINT mixamorig:LeftToeBase
				{
					OFFSET -0.000002 -8.728669 10.710558
					CHANNELS 6 Xposition Yposition Zposition Xrotation Yrotation Zrotation
					JOINT mixamorig:LeftToe_End
					{
						OFFSET -0.000003 -0.000679 9.278133
						CHANNELS 6 Xposition Yposition Zposition Xrotation Yrotation Zrotation
						End Site
						{
							OFFSET 0.000000 -0.068021 927.813477
						}
					}
				}
			}
		}
	}
}
MOTION
Frames: 3
Frame Time: 0.033333
0.000006 104.270477 1.554256 0.000010 0.000003 -0.000113 -0.000005 10.181587 0.131522 0.000001 -0.000003 0.000084 -0.000000 9.893967 -1.470711 0.000001 0.000000 -0.000000 -0.000000 9.220802 -1.370642 0.000000 -0.000000 -0.000000 0.000001 16.740433 -2.049030 0.000000 -0.000000 -0.000000 0.000000 9.617859 1.685014 0.000000 0.000000 0.000000 0.000002 22.037384 7.501101 0.000000 -0.000000 0.000000 -4.569968 11.014880 -2.160881 0.000008 0.000001 -0.000038 -10.592870 -0.524781 -2.231896 69.899500 33.917572 -24.062441 -27.841522 0.000002 0.000566 -54.780515 114.679983 77.898471 -28.328814 0.000023 0.000029 -0.000324 -0.000043 0.000007 -2.464432 -1.573725 2.682300 -51.690967 -168.398000 -20.519625 -3.215265 -1.872572 1.924633 151.857850 32.555981 12.916297 -2.654957 -1.527883 1.513075 148.704392 26.898255 -34.245807 -2.018835 -1.151998 1.108053 -0.000003 -0.000006 0.000002 -9.108384 -0.517563 2.260120 99.405842 16.602148 -19.580501 -3.700068 0.000306 0.001527 98.321871 15.156854 -17.473140 -2.850080 0.000361 -0.000234 99.612579 11.922616 -14.090232 -2.772154 0.000000 -0.000020 -0.000000 -0.000001 -0.000001 -9.532599 0.000257 0.000271 98.724196 17.298439 -20.268182 -3.700070 0.000326 0.004013 100.579030 14.265233 -17.020259 -2.950072 0.000330 -0.001770 104.146622 12.107443 -15.491439 -2.946648 -0.000000 -0.000157 -0.000001 -0.000001 0.000000 -9.103711 -0.042770 -1.864843 98.481807 18.898537 -21.805483 -3.379350 0.000324 -0.000783 99.877774 11.081278 -13.181601 -2.889763 0.000350 0.000680 105.901783 6.931206 -9.233617 -2.638822 -0.000015 0.000940 -0.000000 0.000001 0.000002 -8.076769 -0.486400 -3.805978 95.557311 19.959865 -21.779796 -3.600051 0.000273 -0.003481 96.712542 9.176569 -9.911542 -2.100008 0.000326 -0.005458 98.428770 4.043487 -4.437749 -2.115769 -0.000026 -0.003680 0.000000 -0.000001 -0.000006 4.570446 11.014691 -2.160851 -0.000018 0.000010 -0.000021 10.592548 -0.524529 -2.232396 81.565334 -68.389291 60.752497 27.841785 -0.000052 -0.000085 209.793700 -68.560708 222.637393 28.328840 -0.000014 0.000024 0.000018 -0.000089 -0.000000 2.466132 -1.576169 2.681855 98.729490 128.728821 -145.255639 3.217728 -1.872069 1.916544 -165.215801 57.125462 112.319640 2.655784 -1.528816 1.514656 -216.954457 27.680059 175.552637 2.020891 -1.154083 1.115161 0.000005 0.000002 0.000003 9.109073 -0.517933 2.259970 -174.536919 -12.406876 -132.647000 3.699773 0.000022 -0.000228 -176.899919 -14.181028 -155.369018 2.849754 0.000098 0.000439 -176.805867 -9.541730 -143.062520 2.774870 -0.000046 -0.000026 0.000000 -0.000000 0.000001 9.533219 0.000395 0.000204 -157.359048 -11.038268 -51.516131 3.699854 0.000359 -0.000090 -158.580914 -8.613289 -43.417853 2.949969 0.000359 0.000089 -154.994587 -2.561128 -11.522776 2.952868 -0.000017 0.000046 0.000002 0.000001 -0.000001 9.104692 -0.042829 -1.865078 -208.283409 -18.408448 -294.500326 3.150006 0.000104 -0.000084 49.221400 -1.339073 0.614124 2.949967 0.000021 -0.000068 16.914467 13.109046 -1.957475 2.644338 0.000041 0.000060 0.000000 0.000001 -0.000002 8.077906 -0.486619 -3.806313 138.081099 -15.621572 40.927508 3.599936 0.000111 0.014565 44.057186 11.292646 -4.460672 2.099969 0.000016 0.007600 17.030370 19.328132 -2.932599 2.125503 0.000001 0.007517 -0.000003 -0.000001 0.000000 -8.207786 -6.751667 -1.599560 -0.077001 -0.000003 0.000080 -0.000002 -44.370110 0.345938 0.153719 -0.000000 -0.000000 0.000000 -44.423679 -3.043532 -0.076700 0.000000 -0.000002 -0.000006 -8.728667 10.710559 -0.000009 -0.000000 -0.000000 -0.000001 -0.000679 9.278123 0.000000 -0.000000 -0.000000 8.207792 -6.751710 -1.599556 -0.074518 -0.000003 0.000081 -0.000002 -44.370014 0.346960 0.148822 0.000002 0.000000 -0.000001 -44.423664 -3.044403 -0.074314 0.000000 -0.000002 -0.000004 -8.728671 10.710558 0.000007 -0.000000 -0.000000 0.000000 -0.000680 9.278137 -0.000000 0.000000 -0.000001 
0.000006 104.270477 1.554256 0.000010 0.000003 -0.000113 -0.000005 10.181587 0.131522 0.000001 -0.000003 0.000084 -0.000000 9.893967 -1.470711 0.000001 0.000000 -0.000000 -0.000000 9.220802 -1.370642 0.000000 -0.000000 -0.000000 0.000001 16.740433 -2.049030 0.000000 -0.000000 -0.000000 0.000000 9.617859 1.685014 0.000000 0.000000 0.000000 0.000002 22.037384 7.501101 0.000000 -0.000000 0.000000 -4.569968 11.014880 -2.160881 0.000008 0.000001 -0.000038 -10.592869 -0.524776 -2.231886 70.122410 34.713549 -24.743762 -27.841534 0.000003 0.000549 -54.220490 113.719098 76.201436 -28.328815 -0.000005 0.000024 -0.000321 -0.000043 0.000005 -2.464422 -1.573737 2.682314 -50.464515 -166.029468 -16.809546 -3.215268 -1.872553 1.924630 151.984891 32.725048 13.907639 -2.654952 -1.527886 1.513070 148.940703 26.845603 -34.345572 -2.018842 -1.152014 1.108057 -0.000003 -0.000001 0.000002 -9.108377 -0.517564 2.260132 99.842940 16.697533 -19.842068 -3.700070 0.000317 0.001514 98.154668 14.753757 -16.960193 -2.850109 0.000368 -0.000243 98.892431 11.398262 -13.303223 -2.772148 -0.000016 -0.000020 -0.000000 0.000000 0.000000 -9.532578 0.000278 0.000270 98.953766 17.327838 -20.382989 -3.700075 0.000328 0.004003 101.117904 13.777043 -16.592843 -2.950054 0.000334 -0.001773 104.434535 11.666806 -15.006629 -2.946627 0.000000 -0.000155 -0.000000 -0.000001 0.000001 -9.103704 -0.042769 -1.864840 98.159326 19.111141 -21.927725 -3.379343 0.000321 -0.000789 100.187694 10.982685 -13.136125 -2.889761 0.000350 0.000656 106.146276 6.741736 -9.022969 -2.638815 -0.000002 0.000939 0.000001 -0.000001 -0.000001 -8.076764 -0.486392 -3.805975 94.711986 20.181542 -21.706222 -3.600048 0.000268 -0.003465 96.622691 9.558792 -10.322526 -2.100007 0.000336 -0.005468 98.780136 4.183260 -4.627741 -2.115757 -0.000027 -0.003680 -0.000000 -0.000001 -0.000002 4.570446 11.014691 -2.160851 -0.000018 0.000010 -0.000021 10.592553 -0.524526 -2.232394 82.282135 -68.270275 61.273764 27.841770 -0.000085 -0.000092 209.810174 -68.138903 222.968288 28.328831 -0.000014 0.000039 0.000017 -0.000089 0.000000 2.466109 -1.576203 2.681858 108.694852 123.267866 -151.019772 3.217745 -1.872068 1.916515 -152.020231 64.482976 102.845287 2.655756 -1.528797 1.514601 -219.461546 32.694650 181.611001 2.020891 -1.154081 1.115150 0.000001 -0.000002 -0.000001 9.109273 -0.517667 2.260058 -146.948692 -4.723657 -15.800200 3.699966 0.000335 -0.000148 -143.269338 -3.745786 -11.288180 2.850003 0.000350 0.000529 -138.885599 -0.223382 -0.592753 2.774880 -0.000030 -0.000033 -0.000001 -0.000000 -0.000000 9.533342 0.000453 0.000170 -166.334326 -2.062713 -17.039053 3.699998 0.000386 -0.000113 -165.728352 -0.498727 -3.964925 2.950060 0.000347 0.000052 -161.134408 2.082038 12.467546 2.952873 -0.000016 0.000055 -0.000000 -0.000000 0.000000 9.104598 -0.042681 -1.865111 -209.223434 -5.404912 -339.467614 3.150005 0.000125 -0.000099 45.771113 -0.106391 0.045559 2.949989 0.000033 -0.000046 19.415521 7.123643 -1.220032 2.644317 0.000002 0.000058 0.000000 -0.000002 0.000000 8.077816 -0.486536 -3.806337 137.312757 -3.065083 9.137714 3.599942 0.000110 0.014572 43.624278 9.885894 -3.839177 2.099979 0.000016 0.007618 20.456598 14.300661 -2.573925 2.125495 0.000016 0.007520 0.000000 -0.000006 -0.000002 -8.207786 -6.751667 -1.599560 -0.077001 -0.000003 0.000080 -0.000002 -44.370110 0.345938 0.153719 -0.000000 -0.000000 0.000000 -44.423679 -3.043532 -0.076700 0.000000 -0.000002 -0.000006 -8.728667 10.710559 -0.000009 -0.000000 -0.000000 -0.000001 -0.000679 9.278123 0.000000 -0.000000 -0.000000 8.207792 -6.751710 -1.599556 -0.074518 -0.000003 0.000081 -0.000002 -44.370014 0.346960 0.148822 0.000002 0.000000 -0.000001 -44.423664 -3.044403 -0.074314 0.000000 -0.000002 -0.000004 -8.728671 10.710558 0.000007 -0.000000 -0.000000 0.000000 -0.000680 9.278137 -0.000000 0.000000 -0.000001 
0.000006 104.270477 1.554256 0.000010 0.000003 -0.000113 -0.000005 10.181587 0.131522 0.000001 -0.000003 0.000084 -0.000000 9.893967 -1.470711 0.000001 0.000000 -0.000000 -0.000000 9.220802 -1.370642 0.000000 -0.000000 -0.000000 0.000001 16.740433 -2.049030 0.000000 -0.000000 -0.000000 0.000000 9.617859 1.685014 0.000000 0.000000 0.000000 0.000002 22.037384 7.501101 0.000000 -0.000000 0.000000 -4.569968 11.014880 -2.160881 0.000008 0.000001 -0.000038 -10.592873 -0.524771 -2.231882 70.045578 34.949801 -24.883057 -27.841526 -0.000006 0.000573 -53.828243 113.415517 75.410479 -28.328815 -0.000006 0.000032 -0.000322 -0.000044 0.000008 -2.464427 -1.573762 2.682300 -50.516226 -166.122481 -16.957989 -3.215263 -1.872568 1.924631 152.047374 32.637745 13.221598 -2.654940 -1.527899 1.513084 148.735238 26.871347 -34.443128 -2.018830 -1.151998 1.108069 -0.000003 -0.000005 0.000000 -9.108391 -0.517559 2.260121 99.853411 16.408539 -19.504940 -3.700077 0.000313 0.001522 97.986850 14.332834 -16.429352 -2.850077 0.000372 -0.000247 99.177776 11.021643 -12.929123 -2.772163 -0.000001 -0.000019 -0.000000 -0.000001 -0.000000 -9.532599 0.000260 0.000265 99.017683 16.839066 -19.837062 -3.700094 0.000319 0.004012 100.801168 13.502240 -16.171262 -2.950049 0.000339 -0.001752 104.243843 11.396915 -14.611101 -2.946616 0.000001 -0.000155 -0.000000 0.000002 -0.000000 -9.103717 -0.042765 -1.864846 98.519516 18.719313 -21.613563 -3.379344 0.000317 -0.000775 100.288972 11.050361 -13.240285 -2.889745 0.000347 0.000677 106.165120 6.743958 -9.028990 -2.638801 -0.000016 0.000942 -0.000001 -0.000002 -0.000003 -8.076761 -0.486387 -3.805974 95.130274 19.496830 -21.118274 -3.600047 0.000280 -0.003481 96.676096 9.225546 -9.959940 -2.100025 0.000327 -0.005473 98.969223 4.023903 -4.457397 -2.115758 -0.000044 -0.003679 -0.000001 0.000001 -0.000001 4.570446 11.014691 -2.160851 -0.000018 0.000010 -0.000021 10.592549 -0.524536 -2.232397 82.536785 -68.839728 62.038315 27.841774 -0.000071 -0.000091 209.905729 -68.582312 222.774324 28.328838 -0.000014 0.000041 0.000020 -0.000089 -0.000000 2.466129 -1.576197 2.681873 104.636606 126.333856 -148.768159 3.217731 -1.872069 1.916518 -149.836933 62.264127 99.184093 2.655753 -1.528780 1.514603 -218.170408 31.878197 178.959262 2.020883 -1.154058 1.115143 0.000003 0.000002 0.000003 9.109262 -0.517697 2.260064 -139.780067 -6.420299 -17.395858 3.699970 0.000301 -0.000126 -137.606401 -5.409085 -13.920439 2.849996 0.000326 0.000571 -133.571398 -1.504713 -3.504995 2.774871 -0.000031 -0.000035 0.000001 -0.000000 0.000000 9.533289 0.000433 0.000150 -169.699629 -3.220648 -34.597159 3.699980 0.000382 -0.000122 -167.842378 -1.071791 -10.019808 2.950057 0.000321 0.000058 -161.768850 1.876582 11.639462 2.952867 0.000015 0.000066 0.000000 -0.000001 -0.000000 9.104606 -0.042704 -1.865128 -215.559828 -6.784755 -339.048459 3.150005 0.000087 -0.000086 41.437634 -0.476459 0.180804 2.949991 0.000016 -0.000034 15.761906 7.285592 -1.009722 2.644324 0.000016 0.000054 -0.000001 0.000001 0.000000 8.077826 -0.486537 -3.806351 130.716037 -4.242970 10.359478 3.599944 0.000071 0.014572 39.129228 9.032317 -3.104008 2.099980 0.000014 0.007617 16.971195 14.597477 -2.183021 2.125500 -0.000001 0.007518 0.000001 0.000004 0.000001 -8.207786 -6.751667 -1.599560 -0.077001 -0.000003 0.000080 -0.000002 -44.370110 0.345938 0.153719 -0.000000 -0.000000 0.000000 -44.423679 -3.043532 -0.076700 0.000000 -0.000002 -0.000006 -8.728667 10.710559 -0.000009 -0.000000 -0.000000 -0.000001 -0.000679 9.278123 0.000000 -0.000000 -0.000000 8.207792 -6.751710 -1.599556 -0.074518 -0.000003 0.000081 -0.000002 -44.370014 0.346960 0.148822 0.000002 0.000000 -0.000001 -44.423664 -3.044403 -0.074314 0.000000 -0.000002 -0.000004 -8.728671 10.710558 0.000007 -0.000000 -0.000000 0.000000 -0.000680 9.278137 -0.000000 0.000000 -0.000001 
